<?xml version="1.0" encoding="utf-8" standalone="no"?>
<!DOCTYPE svg PUBLIC "-//W3C//DTD SVG 1.1//EN"
  "http://www.w3.org/Graphics/SVG/1.1/DTD/svg11.dtd">
<svg xmlns:xlink="http://www.w3.org/1999/xlink" width="864pt" height="648pt" viewBox="0 0 864 648" xmlns="http://www.w3.org/2000/svg" version="1.1">
 <metadata>
  <rdf:RDF xmlns:dc="http://purl.org/dc/elements/1.1/" xmlns:cc="http://creativecommons.org/ns#" xmlns:rdf="http://www.w3.org/1999/02/22-rdf-syntax-ns#">
   <cc:Work>
    <dc:type rdf:resource="http://purl.org/dc/dcmitype/StillImage"/>
    <dc:date>2022-12-09T15:20:47.439025</dc:date>
    <dc:format>image/svg+xml</dc:format>
    <dc:creator>
     <cc:Agent>
      <dc:title>Matplotlib v3.5.1, https://matplotlib.org/</dc:title>
     </cc:Agent>
    </dc:creator>
   </cc:Work>
  </rdf:RDF>
 </metadata>
 <defs>
  <style type="text/css">*{stroke-linejoin: round; stroke-linecap: butt}</style>
 </defs>
 <g id="figure_1">
  <g id="patch_1">
   <path d="M 0 648 
L 864 648 
L 864 0 
L 0 0 
L 0 648 
z
" style="fill: none"/>
  </g>
  <g id="axes_1">
   <g id="patch_2">
    <path d="M 115.36375 568.13125 
L 853.2 568.13125 
L 853.2 10.8 
L 115.36375 10.8 
z
" style="fill: #ffffff"/>
   </g>
   <g id="patch_3">
    <path d="M 173.736871 489.642675 
L 290.483113 489.642675 
L 290.483113 475.038957 
L 261.296553 471.721183 
L 290.483113 469.277913 
L 290.483113 455.842847 
L 173.736871 455.842847 
L 173.736871 469.277913 
L 202.923432 471.721183 
L 173.736871 475.038957 
L 173.736871 489.642675 
z
" clip-path="url(#p92725508b8)" style="fill: #808080; stroke: #000000; stroke-width: 5; stroke-linejoin: miter"/>
   </g>
   <g id="line2d_1">
    <path d="M 232.109992 489.642675 
L 232.109992 532.008542 
" clip-path="url(#p92725508b8)" style="fill: none; stroke: #808080; stroke-width: 5; stroke-linecap: square"/>
   </g>
   <g id="line2d_2">
    <path d="M 232.109992 455.842847 
L 232.109992 406.604891 
" clip-path="url(#p92725508b8)" style="fill: none; stroke: #808080; stroke-width: 5; stroke-linecap: square"/>
   </g>
   <g id="line2d_3">
    <path d="M 202.923432 532.008542 
L 261.296553 532.008542 
" clip-path="url(#p92725508b8)" style="fill: none; stroke: #808080; stroke-linecap: square"/>
   </g>
   <g id="line2d_4">
    <path d="M 202.923432 406.604891 
L 261.296553 406.604891 
" clip-path="url(#p92725508b8)" style="fill: none; stroke: #808080; stroke-linecap: square"/>
   </g>
   <g id="line2d_5">
    <defs>
     <path id="me462ea1ab5" d="M 0 3 
C 0.795609 3 1.55874 2.683901 2.12132 2.12132 
C 2.683901 1.55874 3 0.795609 3 0 
C 3 -0.795609 2.683901 -1.55874 2.12132 -2.12132 
C 1.55874 -2.683901 0.795609 -3 0 -3 
C -0.795609 -3 -1.55874 -2.683901 -2.12132 -2.12132 
C -2.683901 -1.55874 -3 -0.795609 -3 0 
C -3 0.795609 -2.683901 1.55874 -2.12132 2.12132 
C -1.55874 2.683901 -0.795609 3 0 3 
z
" style="stroke: #808080"/>
    </defs>
    <g clip-path="url(#p92725508b8)">
     <use xlink:href="#me462ea1ab5" x="232.109992" y="542.425165" style="fill-opacity: 0; stroke: #808080"/>
     <use xlink:href="#me462ea1ab5" x="232.109992" y="542.798011" style="fill-opacity: 0; stroke: #808080"/>
     <use xlink:href="#me462ea1ab5" x="232.109992" y="392.880407" style="fill-opacity: 0; stroke: #808080"/>
     <use xlink:href="#me462ea1ab5" x="232.109992" y="405.02914" style="fill-opacity: 0; stroke: #808080"/>
     <use xlink:href="#me462ea1ab5" x="232.109992" y="390.234159" style="fill-opacity: 0; stroke: #808080"/>
    </g>
   </g>
   <g id="patch_4">
    <path d="M 285.813263 370.468864 
L 402.559506 370.468864 
L 402.559506 353.001827 
L 373.372945 350.066733 
L 402.559506 346.177477 
L 402.559506 330.212959 
L 285.813263 330.212959 
L 285.813263 346.177477 
L 314.999824 350.066733 
L 285.813263 353.001827 
L 285.813263 370.468864 
z
" clip-path="url(#p92725508b8)" style="fill: #808080; stroke: #000000; stroke-width: 5; stroke-linejoin: miter"/>
   </g>
   <g id="line2d_6">
    <path d="M 344.186384 370.468864 
L 344.186384 428.556727 
" clip-path="url(#p92725508b8)" style="fill: none; stroke: #808080; stroke-width: 5; stroke-linecap: square"/>
   </g>
   <g id="line2d_7">
    <path d="M 344.186384 330.212959 
L 344.186384 275.127826 
" clip-path="url(#p92725508b8)" style="fill: none; stroke: #808080; stroke-width: 5; stroke-linecap: square"/>
   </g>
   <g id="line2d_8">
    <path d="M 314.999824 428.556727 
L 373.372945 428.556727 
" clip-path="url(#p92725508b8)" style="fill: none; stroke: #808080; stroke-linecap: square"/>
   </g>
   <g id="line2d_9">
    <path d="M 314.999824 275.127826 
L 373.372945 275.127826 
" clip-path="url(#p92725508b8)" style="fill: none; stroke: #808080; stroke-linecap: square"/>
   </g>
   <g id="line2d_10">
    <g clip-path="url(#p92725508b8)">
     <use xlink:href="#me462ea1ab5" x="344.186384" y="431.270887" style="fill-opacity: 0; stroke: #808080"/>
     <use xlink:href="#me462ea1ab5" x="344.186384" y="442.285558" style="fill-opacity: 0; stroke: #808080"/>
     <use xlink:href="#me462ea1ab5" x="344.186384" y="244.007911" style="fill-opacity: 0; stroke: #808080"/>
     <use xlink:href="#me462ea1ab5" x="344.186384" y="260.040885" style="fill-opacity: 0; stroke: #808080"/>
     <use xlink:href="#me462ea1ab5" x="344.186384" y="268.666132" style="fill-opacity: 0; stroke: #808080"/>
     <use xlink:href="#me462ea1ab5" x="344.186384" y="268.408583" style="fill-opacity: 0; stroke: #808080"/>
    </g>
   </g>
   <g id="patch_5">
    <path d="M 678.080637 92.329486 
L 794.826879 92.329486 
L 794.826879 83.260011 
L 765.640318 81.908302 
L 794.826879 79.907383 
L 794.826879 72.035061 
L 678.080637 72.035061 
L 678.080637 79.907383 
L 707.267197 81.908302 
L 678.080637 83.260011 
L 678.080637 92.329486 
z
" clip-path="url(#p92725508b8)" style="fill: #808080; stroke: #000000; stroke-width: 5; stroke-linejoin: miter"/>
   </g>
   <g id="line2d_11">
    <path d="M 736.453758 92.329486 
L 736.453758 119.859587 
" clip-path="url(#p92725508b8)" style="fill: none; stroke: #808080; stroke-width: 5; stroke-linecap: square"/>
   </g>
   <g id="line2d_12">
    <path d="M 736.453758 72.035061 
L 736.453758 44.625921 
" clip-path="url(#p92725508b8)" style="fill: none; stroke: #808080; stroke-width: 5; stroke-linecap: square"/>
   </g>
   <g id="line2d_13">
    <path d="M 707.267197 119.859587 
L 765.640318 119.859587 
" clip-path="url(#p92725508b8)" style="fill: none; stroke: #808080; stroke-linecap: square"/>
   </g>
   <g id="line2d_14">
    <path d="M 707.267197 44.625921 
L 765.640318 44.625921 
" clip-path="url(#p92725508b8)" style="fill: none; stroke: #808080; stroke-linecap: square"/>
   </g>
   <g id="line2d_15">
    <g clip-path="url(#p92725508b8)">
     <use xlink:href="#me462ea1ab5" x="736.453758" y="139.672322" style="fill-opacity: 0; stroke: #808080"/>
     <use xlink:href="#me462ea1ab5" x="736.453758" y="124.199231" style="fill-opacity: 0; stroke: #808080"/>
     <use xlink:href="#me462ea1ab5" x="736.453758" y="127.819306" style="fill-opacity: 0; stroke: #808080"/>
     <use xlink:href="#me462ea1ab5" x="736.453758" y="128.199815" style="fill-opacity: 0; stroke: #808080"/>
     <use xlink:href="#me462ea1ab5" x="736.453758" y="127.254734" style="fill-opacity: 0; stroke: #808080"/>
     <use xlink:href="#me462ea1ab5" x="736.453758" y="130.339879" style="fill-opacity: 0; stroke: #808080"/>
     <use xlink:href="#me462ea1ab5" x="736.453758" y="126.494781" style="fill-opacity: 0; stroke: #808080"/>
     <use xlink:href="#me462ea1ab5" x="736.453758" y="36.133239" style="fill-opacity: 0; stroke: #808080"/>
    </g>
   </g>
   <g id="line2d_16">
    <path d="M 202.923432 471.721183 
L 261.296553 471.721183 
" clip-path="url(#p92725508b8)" style="fill: none; stroke: #808080; stroke-linecap: square"/>
   </g>
   <g id="line2d_17">
    <path d="M 314.999824 350.066733 
L 373.372945 350.066733 
" clip-path="url(#p92725508b8)" style="fill: none; stroke: #808080; stroke-linecap: square"/>
   </g>
   <g id="line2d_18">
    <path d="M 707.267197 81.908302 
L 765.640318 81.908302 
" clip-path="url(#p92725508b8)" style="fill: none; stroke: #808080; stroke-linecap: square"/>
   </g>
   <g id="matplotlib.axis_1">
    <g id="xtick_1">
     <g id="line2d_19">
      <defs>
       <path id="m9422432173" d="M 0 0 
L 0 3.5 
" style="stroke: #000000; stroke-width: 0.8"/>
      </defs>
      <g>
       <use xlink:href="#m9422432173" x="232.109992" y="568.13125" style="stroke: #000000; stroke-width: 0.8"/>
      </g>
     </g>
     <g id="text_1">
      <!-- 1:75 -->
      <g transform="translate(200.671242 596.406875)scale(0.28 -0.28)">
       <defs>
        <path id="DejaVuSans-31" d="M 794 531 
L 1825 531 
L 1825 4091 
L 703 3866 
L 703 4441 
L 1819 4666 
L 2450 4666 
L 2450 531 
L 3481 531 
L 3481 0 
L 794 0 
L 794 531 
z
" transform="scale(0.015625)"/>
        <path id="DejaVuSans-3a" d="M 750 794 
L 1409 794 
L 1409 0 
L 750 0 
L 750 794 
z
M 750 3309 
L 1409 3309 
L 1409 2516 
L 750 2516 
L 750 3309 
z
" transform="scale(0.015625)"/>
        <path id="DejaVuSans-37" d="M 525 4666 
L 3525 4666 
L 3525 4397 
L 1831 0 
L 1172 0 
L 2766 4134 
L 525 4134 
L 525 4666 
z
" transform="scale(0.015625)"/>
        <path id="DejaVuSans-35" d="M 691 4666 
L 3169 4666 
L 3169 4134 
L 1269 4134 
L 1269 2991 
Q 1406 3038 1543 3061 
Q 1681 3084 1819 3084 
Q 2600 3084 3056 2656 
Q 3513 2228 3513 1497 
Q 3513 744 3044 326 
Q 2575 -91 1722 -91 
Q 1428 -91 1123 -41 
Q 819 9 494 109 
L 494 744 
Q 775 591 1075 516 
Q 1375 441 1709 441 
Q 2250 441 2565 725 
Q 2881 1009 2881 1497 
Q 2881 1984 2565 2268 
Q 2250 2553 1709 2553 
Q 1456 2553 1204 2497 
Q 953 2441 691 2322 
L 691 4666 
z
" transform="scale(0.015625)"/>
       </defs>
       <use xlink:href="#DejaVuSans-31"/>
       <use xlink:href="#DejaVuSans-3a" x="63.623047"/>
       <use xlink:href="#DejaVuSans-37" x="97.314453"/>
       <use xlink:href="#DejaVuSans-35" x="160.9375"/>
      </g>
     </g>
    </g>
    <g id="xtick_2">
     <g id="line2d_20">
      <g>
       <use xlink:href="#m9422432173" x="344.186384" y="568.13125" style="stroke: #000000; stroke-width: 0.8"/>
      </g>
     </g>
     <g id="text_2">
      <!-- 1:40 -->
      <g transform="translate(312.747634 596.406875)scale(0.28 -0.28)">
       <defs>
        <path id="DejaVuSans-34" d="M 2419 4116 
L 825 1625 
L 2419 1625 
L 2419 4116 
z
M 2253 4666 
L 3047 4666 
L 3047 1625 
L 3713 1625 
L 3713 1100 
L 3047 1100 
L 3047 0 
L 2419 0 
L 2419 1100 
L 313 1100 
L 313 1709 
L 2253 4666 
z
" transform="scale(0.015625)"/>
        <path id="DejaVuSans-30" d="M 2034 4250 
Q 1547 4250 1301 3770 
Q 1056 3291 1056 2328 
Q 1056 1369 1301 889 
Q 1547 409 2034 409 
Q 2525 409 2770 889 
Q 3016 1369 3016 2328 
Q 3016 3291 2770 3770 
Q 2525 4250 2034 4250 
z
M 2034 4750 
Q 2819 4750 3233 4129 
Q 3647 3509 3647 2328 
Q 3647 1150 3233 529 
Q 2819 -91 2034 -91 
Q 1250 -91 836 529 
Q 422 1150 422 2328 
Q 422 3509 836 4129 
Q 1250 4750 2034 4750 
z
" transform="scale(0.015625)"/>
       </defs>
       <use xlink:href="#DejaVuSans-31"/>
       <use xlink:href="#DejaVuSans-3a" x="63.623047"/>
       <use xlink:href="#DejaVuSans-34" x="97.314453"/>
       <use xlink:href="#DejaVuSans-30" x="160.9375"/>
      </g>
     </g>
    </g>
    <g id="xtick_3">
     <g id="line2d_21">
      <g>
       <use xlink:href="#m9422432173" x="736.453758" y="568.13125" style="stroke: #000000; stroke-width: 0.8"/>
      </g>
     </g>
     <g id="text_3">
      <!-- 1:15 -->
      <g transform="translate(705.015008 596.406875)scale(0.28 -0.28)">
       <use xlink:href="#DejaVuSans-31"/>
       <use xlink:href="#DejaVuSans-3a" x="63.623047"/>
       <use xlink:href="#DejaVuSans-31" x="97.314453"/>
       <use xlink:href="#DejaVuSans-35" x="160.9375"/>
      </g>
     </g>
    </g>
    <g id="text_4">
     <!-- Cocentration -->
     <g transform="translate(367.969375 630.545)scale(0.32 -0.32)">
      <defs>
       <path id="DejaVuSans-Bold-43" d="M 4288 256 
Q 3956 84 3597 -3 
Q 3238 -91 2847 -91 
Q 1681 -91 1000 561 
Q 319 1213 319 2328 
Q 319 3447 1000 4098 
Q 1681 4750 2847 4750 
Q 3238 4750 3597 4662 
Q 3956 4575 4288 4403 
L 4288 3438 
Q 3953 3666 3628 3772 
Q 3303 3878 2944 3878 
Q 2300 3878 1931 3465 
Q 1563 3053 1563 2328 
Q 1563 1606 1931 1193 
Q 2300 781 2944 781 
Q 3303 781 3628 887 
Q 3953 994 4288 1222 
L 4288 256 
z
" transform="scale(0.015625)"/>
       <path id="DejaVuSans-Bold-6f" d="M 2203 2784 
Q 1831 2784 1636 2517 
Q 1441 2250 1441 1747 
Q 1441 1244 1636 976 
Q 1831 709 2203 709 
Q 2569 709 2762 976 
Q 2956 1244 2956 1747 
Q 2956 2250 2762 2517 
Q 2569 2784 2203 2784 
z
M 2203 3584 
Q 3106 3584 3614 3096 
Q 4122 2609 4122 1747 
Q 4122 884 3614 396 
Q 3106 -91 2203 -91 
Q 1297 -91 786 396 
Q 275 884 275 1747 
Q 275 2609 786 3096 
Q 1297 3584 2203 3584 
z
" transform="scale(0.015625)"/>
       <path id="DejaVuSans-Bold-63" d="M 3366 3391 
L 3366 2478 
Q 3138 2634 2908 2709 
Q 2678 2784 2431 2784 
Q 1963 2784 1702 2511 
Q 1441 2238 1441 1747 
Q 1441 1256 1702 982 
Q 1963 709 2431 709 
Q 2694 709 2930 787 
Q 3166 866 3366 1019 
L 3366 103 
Q 3103 6 2833 -42 
Q 2563 -91 2291 -91 
Q 1344 -91 809 395 
Q 275 881 275 1747 
Q 275 2613 809 3098 
Q 1344 3584 2291 3584 
Q 2566 3584 2833 3536 
Q 3100 3488 3366 3391 
z
" transform="scale(0.015625)"/>
       <path id="DejaVuSans-Bold-65" d="M 4031 1759 
L 4031 1441 
L 1416 1441 
Q 1456 1047 1700 850 
Q 1944 653 2381 653 
Q 2734 653 3104 758 
Q 3475 863 3866 1075 
L 3866 213 
Q 3469 63 3072 -14 
Q 2675 -91 2278 -91 
Q 1328 -91 801 392 
Q 275 875 275 1747 
Q 275 2603 792 3093 
Q 1309 3584 2216 3584 
Q 3041 3584 3536 3087 
Q 4031 2591 4031 1759 
z
M 2881 2131 
Q 2881 2450 2695 2645 
Q 2509 2841 2209 2841 
Q 1884 2841 1681 2658 
Q 1478 2475 1428 2131 
L 2881 2131 
z
" transform="scale(0.015625)"/>
       <path id="DejaVuSans-Bold-6e" d="M 4056 2131 
L 4056 0 
L 2931 0 
L 2931 347 
L 2931 1631 
Q 2931 2084 2911 2256 
Q 2891 2428 2841 2509 
Q 2775 2619 2662 2680 
Q 2550 2741 2406 2741 
Q 2056 2741 1856 2470 
Q 1656 2200 1656 1722 
L 1656 0 
L 538 0 
L 538 3500 
L 1656 3500 
L 1656 2988 
Q 1909 3294 2193 3439 
Q 2478 3584 2822 3584 
Q 3428 3584 3742 3212 
Q 4056 2841 4056 2131 
z
" transform="scale(0.015625)"/>
       <path id="DejaVuSans-Bold-74" d="M 1759 4494 
L 1759 3500 
L 2913 3500 
L 2913 2700 
L 1759 2700 
L 1759 1216 
Q 1759 972 1856 886 
Q 1953 800 2241 800 
L 2816 800 
L 2816 0 
L 1856 0 
Q 1194 0 917 276 
Q 641 553 641 1216 
L 641 2700 
L 84 2700 
L 84 3500 
L 641 3500 
L 641 4494 
L 1759 4494 
z
" transform="scale(0.015625)"/>
       <path id="DejaVuSans-Bold-72" d="M 3138 2547 
Q 2991 2616 2845 2648 
Q 2700 2681 2553 2681 
Q 2122 2681 1889 2404 
Q 1656 2128 1656 1613 
L 1656 0 
L 538 0 
L 538 3500 
L 1656 3500 
L 1656 2925 
Q 1872 3269 2151 3426 
Q 2431 3584 2822 3584 
Q 2878 3584 2943 3579 
Q 3009 3575 3134 3559 
L 3138 2547 
z
" transform="scale(0.015625)"/>
       <path id="DejaVuSans-Bold-61" d="M 2106 1575 
Q 1756 1575 1579 1456 
Q 1403 1338 1403 1106 
Q 1403 894 1545 773 
Q 1688 653 1941 653 
Q 2256 653 2472 879 
Q 2688 1106 2688 1447 
L 2688 1575 
L 2106 1575 
z
M 3816 1997 
L 3816 0 
L 2688 0 
L 2688 519 
Q 2463 200 2181 54 
Q 1900 -91 1497 -91 
Q 953 -91 614 226 
Q 275 544 275 1050 
Q 275 1666 698 1953 
Q 1122 2241 2028 2241 
L 2688 2241 
L 2688 2328 
Q 2688 2594 2478 2717 
Q 2269 2841 1825 2841 
Q 1466 2841 1156 2769 
Q 847 2697 581 2553 
L 581 3406 
Q 941 3494 1303 3539 
Q 1666 3584 2028 3584 
Q 2975 3584 3395 3211 
Q 3816 2838 3816 1997 
z
" transform="scale(0.015625)"/>
       <path id="DejaVuSans-Bold-69" d="M 538 3500 
L 1656 3500 
L 1656 0 
L 538 0 
L 538 3500 
z
M 538 4863 
L 1656 4863 
L 1656 3950 
L 538 3950 
L 538 4863 
z
" transform="scale(0.015625)"/>
      </defs>
      <use xlink:href="#DejaVuSans-Bold-43"/>
      <use xlink:href="#DejaVuSans-Bold-6f" x="73.388672"/>
      <use xlink:href="#DejaVuSans-Bold-63" x="142.089844"/>
      <use xlink:href="#DejaVuSans-Bold-65" x="201.367188"/>
      <use xlink:href="#DejaVuSans-Bold-6e" x="269.189453"/>
      <use xlink:href="#DejaVuSans-Bold-74" x="340.380859"/>
      <use xlink:href="#DejaVuSans-Bold-72" x="388.183594"/>
      <use xlink:href="#DejaVuSans-Bold-61" x="437.5"/>
      <use xlink:href="#DejaVuSans-Bold-74" x="504.980469"/>
      <use xlink:href="#DejaVuSans-Bold-69" x="552.783203"/>
      <use xlink:href="#DejaVuSans-Bold-6f" x="587.060547"/>
      <use xlink:href="#DejaVuSans-Bold-6e" x="655.761719"/>
     </g>
    </g>
   </g>
   <g id="matplotlib.axis_2">
    <g id="ytick_1">
     <g id="line2d_22">
      <defs>
       <path id="m4bd4bcb925" d="M 0 0 
L -3.5 0 
" style="stroke: #000000; stroke-width: 0.8"/>
      </defs>
      <g>
       <use xlink:href="#m4bd4bcb925" x="115.36375" y="554.631554" style="stroke: #000000; stroke-width: 0.8"/>
      </g>
     </g>
     <g id="text_5">
      <!-- 0.15 -->
      <g transform="translate(46.02 565.269367)scale(0.28 -0.28)">
       <defs>
        <path id="DejaVuSans-2e" d="M 684 794 
L 1344 794 
L 1344 0 
L 684 0 
L 684 794 
z
" transform="scale(0.015625)"/>
       </defs>
       <use xlink:href="#DejaVuSans-30"/>
       <use xlink:href="#DejaVuSans-2e" x="63.623047"/>
       <use xlink:href="#DejaVuSans-31" x="95.410156"/>
       <use xlink:href="#DejaVuSans-35" x="159.033203"/>
      </g>
     </g>
    </g>
    <g id="ytick_2">
     <g id="line2d_23">
      <g>
       <use xlink:href="#m4bd4bcb925" x="115.36375" y="483.559588" style="stroke: #000000; stroke-width: 0.8"/>
      </g>
     </g>
     <g id="text_6">
      <!-- 0.20 -->
      <g transform="translate(46.02 494.197401)scale(0.28 -0.28)">
       <defs>
        <path id="DejaVuSans-32" d="M 1228 531 
L 3431 531 
L 3431 0 
L 469 0 
L 469 531 
Q 828 903 1448 1529 
Q 2069 2156 2228 2338 
Q 2531 2678 2651 2914 
Q 2772 3150 2772 3378 
Q 2772 3750 2511 3984 
Q 2250 4219 1831 4219 
Q 1534 4219 1204 4116 
Q 875 4013 500 3803 
L 500 4441 
Q 881 4594 1212 4672 
Q 1544 4750 1819 4750 
Q 2544 4750 2975 4387 
Q 3406 4025 3406 3419 
Q 3406 3131 3298 2873 
Q 3191 2616 2906 2266 
Q 2828 2175 2409 1742 
Q 1991 1309 1228 531 
z
" transform="scale(0.015625)"/>
       </defs>
       <use xlink:href="#DejaVuSans-30"/>
       <use xlink:href="#DejaVuSans-2e" x="63.623047"/>
       <use xlink:href="#DejaVuSans-32" x="95.410156"/>
       <use xlink:href="#DejaVuSans-30" x="159.033203"/>
      </g>
     </g>
    </g>
    <g id="ytick_3">
     <g id="line2d_24">
      <g>
       <use xlink:href="#m4bd4bcb925" x="115.36375" y="412.487622" style="stroke: #000000; stroke-width: 0.8"/>
      </g>
     </g>
     <g id="text_7">
      <!-- 0.25 -->
      <g transform="translate(46.02 423.125435)scale(0.28 -0.28)">
       <use xlink:href="#DejaVuSans-30"/>
       <use xlink:href="#DejaVuSans-2e" x="63.623047"/>
       <use xlink:href="#DejaVuSans-32" x="95.410156"/>
       <use xlink:href="#DejaVuSans-35" x="159.033203"/>
      </g>
     </g>
    </g>
    <g id="ytick_4">
     <g id="line2d_25">
      <g>
       <use xlink:href="#m4bd4bcb925" x="115.36375" y="341.415656" style="stroke: #000000; stroke-width: 0.8"/>
      </g>
     </g>
     <g id="text_8">
      <!-- 0.30 -->
      <g transform="translate(46.02 352.053469)scale(0.28 -0.28)">
       <defs>
        <path id="DejaVuSans-33" d="M 2597 2516 
Q 3050 2419 3304 2112 
Q 3559 1806 3559 1356 
Q 3559 666 3084 287 
Q 2609 -91 1734 -91 
Q 1441 -91 1130 -33 
Q 819 25 488 141 
L 488 750 
Q 750 597 1062 519 
Q 1375 441 1716 441 
Q 2309 441 2620 675 
Q 2931 909 2931 1356 
Q 2931 1769 2642 2001 
Q 2353 2234 1838 2234 
L 1294 2234 
L 1294 2753 
L 1863 2753 
Q 2328 2753 2575 2939 
Q 2822 3125 2822 3475 
Q 2822 3834 2567 4026 
Q 2313 4219 1838 4219 
Q 1578 4219 1281 4162 
Q 984 4106 628 3988 
L 628 4550 
Q 988 4650 1302 4700 
Q 1616 4750 1894 4750 
Q 2613 4750 3031 4423 
Q 3450 4097 3450 3541 
Q 3450 3153 3228 2886 
Q 3006 2619 2597 2516 
z
" transform="scale(0.015625)"/>
       </defs>
       <use xlink:href="#DejaVuSans-30"/>
       <use xlink:href="#DejaVuSans-2e" x="63.623047"/>
       <use xlink:href="#DejaVuSans-33" x="95.410156"/>
       <use xlink:href="#DejaVuSans-30" x="159.033203"/>
      </g>
     </g>
    </g>
    <g id="ytick_5">
     <g id="line2d_26">
      <g>
       <use xlink:href="#m4bd4bcb925" x="115.36375" y="270.34369" style="stroke: #000000; stroke-width: 0.8"/>
      </g>
     </g>
     <g id="text_9">
      <!-- 0.35 -->
      <g transform="translate(46.02 280.981502)scale(0.28 -0.28)">
       <use xlink:href="#DejaVuSans-30"/>
       <use xlink:href="#DejaVuSans-2e" x="63.623047"/>
       <use xlink:href="#DejaVuSans-33" x="95.410156"/>
       <use xlink:href="#DejaVuSans-35" x="159.033203"/>
      </g>
     </g>
    </g>
    <g id="ytick_6">
     <g id="line2d_27">
      <g>
       <use xlink:href="#m4bd4bcb925" x="115.36375" y="199.271724" style="stroke: #000000; stroke-width: 0.8"/>
      </g>
     </g>
     <g id="text_10">
      <!-- 0.40 -->
      <g transform="translate(46.02 209.909536)scale(0.28 -0.28)">
       <use xlink:href="#DejaVuSans-30"/>
       <use xlink:href="#DejaVuSans-2e" x="63.623047"/>
       <use xlink:href="#DejaVuSans-34" x="95.410156"/>
       <use xlink:href="#DejaVuSans-30" x="159.033203"/>
      </g>
     </g>
    </g>
    <g id="ytick_7">
     <g id="line2d_28">
      <g>
       <use xlink:href="#m4bd4bcb925" x="115.36375" y="128.199758" style="stroke: #000000; stroke-width: 0.8"/>
      </g>
     </g>
     <g id="text_11">
      <!-- 0.45 -->
      <g transform="translate(46.02 138.83757)scale(0.28 -0.28)">
       <use xlink:href="#DejaVuSans-30"/>
       <use xlink:href="#DejaVuSans-2e" x="63.623047"/>
       <use xlink:href="#DejaVuSans-34" x="95.410156"/>
       <use xlink:href="#DejaVuSans-35" x="159.033203"/>
      </g>
     </g>
    </g>
    <g id="ytick_8">
     <g id="line2d_29">
      <g>
       <use xlink:href="#m4bd4bcb925" x="115.36375" y="57.127792" style="stroke: #000000; stroke-width: 0.8"/>
      </g>
     </g>
     <g id="text_12">
      <!-- 0.50 -->
      <g transform="translate(46.02 67.765604)scale(0.28 -0.28)">
       <use xlink:href="#DejaVuSans-30"/>
       <use xlink:href="#DejaVuSans-2e" x="63.623047"/>
       <use xlink:href="#DejaVuSans-35" x="95.410156"/>
       <use xlink:href="#DejaVuSans-30" x="159.033203"/>
      </g>
     </g>
    </g>
    <g id="text_13">
     <!-- Shannon entropy of mixing -->
     <g transform="translate(35.115 534.460625)rotate(-90)scale(0.32 -0.32)">
      <defs>
       <path id="DejaVuSans-Bold-53" d="M 3834 4519 
L 3834 3531 
Q 3450 3703 3084 3790 
Q 2719 3878 2394 3878 
Q 1963 3878 1756 3759 
Q 1550 3641 1550 3391 
Q 1550 3203 1689 3098 
Q 1828 2994 2194 2919 
L 2706 2816 
Q 3484 2659 3812 2340 
Q 4141 2022 4141 1434 
Q 4141 663 3683 286 
Q 3225 -91 2284 -91 
Q 1841 -91 1394 -6 
Q 947 78 500 244 
L 500 1259 
Q 947 1022 1364 901 
Q 1781 781 2169 781 
Q 2563 781 2772 912 
Q 2981 1044 2981 1288 
Q 2981 1506 2839 1625 
Q 2697 1744 2272 1838 
L 1806 1941 
Q 1106 2091 782 2419 
Q 459 2747 459 3303 
Q 459 4000 909 4375 
Q 1359 4750 2203 4750 
Q 2588 4750 2994 4692 
Q 3400 4634 3834 4519 
z
" transform="scale(0.015625)"/>
       <path id="DejaVuSans-Bold-68" d="M 4056 2131 
L 4056 0 
L 2931 0 
L 2931 347 
L 2931 1625 
Q 2931 2084 2911 2256 
Q 2891 2428 2841 2509 
Q 2775 2619 2662 2680 
Q 2550 2741 2406 2741 
Q 2056 2741 1856 2470 
Q 1656 2200 1656 1722 
L 1656 0 
L 538 0 
L 538 4863 
L 1656 4863 
L 1656 2988 
Q 1909 3294 2193 3439 
Q 2478 3584 2822 3584 
Q 3428 3584 3742 3212 
Q 4056 2841 4056 2131 
z
" transform="scale(0.015625)"/>
       <path id="DejaVuSans-Bold-20" transform="scale(0.015625)"/>
       <path id="DejaVuSans-Bold-70" d="M 1656 506 
L 1656 -1331 
L 538 -1331 
L 538 3500 
L 1656 3500 
L 1656 2988 
Q 1888 3294 2169 3439 
Q 2450 3584 2816 3584 
Q 3463 3584 3878 3070 
Q 4294 2556 4294 1747 
Q 4294 938 3878 423 
Q 3463 -91 2816 -91 
Q 2450 -91 2169 54 
Q 1888 200 1656 506 
z
M 2400 2772 
Q 2041 2772 1848 2508 
Q 1656 2244 1656 1747 
Q 1656 1250 1848 986 
Q 2041 722 2400 722 
Q 2759 722 2948 984 
Q 3138 1247 3138 1747 
Q 3138 2247 2948 2509 
Q 2759 2772 2400 2772 
z
" transform="scale(0.015625)"/>
       <path id="DejaVuSans-Bold-79" d="M 78 3500 
L 1197 3500 
L 2138 1125 
L 2938 3500 
L 4056 3500 
L 2584 -331 
Q 2363 -916 2067 -1148 
Q 1772 -1381 1288 -1381 
L 641 -1381 
L 641 -647 
L 991 -647 
Q 1275 -647 1404 -556 
Q 1534 -466 1606 -231 
L 1638 -134 
L 78 3500 
z
" transform="scale(0.015625)"/>
       <path id="DejaVuSans-Bold-66" d="M 2841 4863 
L 2841 4128 
L 2222 4128 
Q 1984 4128 1890 4042 
Q 1797 3956 1797 3744 
L 1797 3500 
L 2753 3500 
L 2753 2700 
L 1797 2700 
L 1797 0 
L 678 0 
L 678 2700 
L 122 2700 
L 122 3500 
L 678 3500 
L 678 3744 
Q 678 4316 997 4589 
Q 1316 4863 1984 4863 
L 2841 4863 
z
" transform="scale(0.015625)"/>
       <path id="DejaVuSans-Bold-6d" d="M 3781 2919 
Q 3994 3244 4286 3414 
Q 4578 3584 4928 3584 
Q 5531 3584 5847 3212 
Q 6163 2841 6163 2131 
L 6163 0 
L 5038 0 
L 5038 1825 
Q 5041 1866 5042 1909 
Q 5044 1953 5044 2034 
Q 5044 2406 4934 2573 
Q 4825 2741 4581 2741 
Q 4263 2741 4089 2478 
Q 3916 2216 3909 1719 
L 3909 0 
L 2784 0 
L 2784 1825 
Q 2784 2406 2684 2573 
Q 2584 2741 2328 2741 
Q 2006 2741 1831 2477 
Q 1656 2213 1656 1722 
L 1656 0 
L 531 0 
L 531 3500 
L 1656 3500 
L 1656 2988 
Q 1863 3284 2130 3434 
Q 2397 3584 2719 3584 
Q 3081 3584 3359 3409 
Q 3638 3234 3781 2919 
z
" transform="scale(0.015625)"/>
       <path id="DejaVuSans-Bold-78" d="M 1422 1791 
L 159 3500 
L 1344 3500 
L 2059 2463 
L 2784 3500 
L 3969 3500 
L 2706 1797 
L 4031 0 
L 2847 0 
L 2059 1106 
L 1281 0 
L 97 0 
L 1422 1791 
z
" transform="scale(0.015625)"/>
       <path id="DejaVuSans-Bold-67" d="M 2919 594 
Q 2688 288 2409 144 
Q 2131 0 1766 0 
Q 1125 0 706 504 
Q 288 1009 288 1791 
Q 288 2575 706 3076 
Q 1125 3578 1766 3578 
Q 2131 3578 2409 3434 
Q 2688 3291 2919 2981 
L 2919 3500 
L 4044 3500 
L 4044 353 
Q 4044 -491 3511 -936 
Q 2978 -1381 1966 -1381 
Q 1638 -1381 1331 -1331 
Q 1025 -1281 716 -1178 
L 716 -306 
Q 1009 -475 1290 -558 
Q 1572 -641 1856 -641 
Q 2406 -641 2662 -400 
Q 2919 -159 2919 353 
L 2919 594 
z
M 2181 2772 
Q 1834 2772 1640 2515 
Q 1447 2259 1447 1791 
Q 1447 1309 1634 1061 
Q 1822 813 2181 813 
Q 2531 813 2725 1069 
Q 2919 1325 2919 1791 
Q 2919 2259 2725 2515 
Q 2531 2772 2181 2772 
z
" transform="scale(0.015625)"/>
      </defs>
      <use xlink:href="#DejaVuSans-Bold-53"/>
      <use xlink:href="#DejaVuSans-Bold-68" x="72.021484"/>
      <use xlink:href="#DejaVuSans-Bold-61" x="143.212891"/>
      <use xlink:href="#DejaVuSans-Bold-6e" x="210.693359"/>
      <use xlink:href="#DejaVuSans-Bold-6e" x="281.884766"/>
      <use xlink:href="#DejaVuSans-Bold-6f" x="353.076172"/>
      <use xlink:href="#DejaVuSans-Bold-6e" x="421.777344"/>
      <use xlink:href="#DejaVuSans-Bold-20" x="492.96875"/>
      <use xlink:href="#DejaVuSans-Bold-65" x="527.783203"/>
      <use xlink:href="#DejaVuSans-Bold-6e" x="595.605469"/>
      <use xlink:href="#DejaVuSans-Bold-74" x="666.796875"/>
      <use xlink:href="#DejaVuSans-Bold-72" x="714.599609"/>
      <use xlink:href="#DejaVuSans-Bold-6f" x="763.916016"/>
      <use xlink:href="#DejaVuSans-Bold-70" x="832.617188"/>
      <use xlink:href="#DejaVuSans-Bold-79" x="904.199219"/>
      <use xlink:href="#DejaVuSans-Bold-20" x="969.384766"/>
      <use xlink:href="#DejaVuSans-Bold-6f" x="1004.199219"/>
      <use xlink:href="#DejaVuSans-Bold-66" x="1072.900391"/>
      <use xlink:href="#DejaVuSans-Bold-20" x="1116.40625"/>
      <use xlink:href="#DejaVuSans-Bold-6d" x="1151.220703"/>
      <use xlink:href="#DejaVuSans-Bold-69" x="1255.419922"/>
      <use xlink:href="#DejaVuSans-Bold-78" x="1289.697266"/>
      <use xlink:href="#DejaVuSans-Bold-69" x="1354.199219"/>
      <use xlink:href="#DejaVuSans-Bold-6e" x="1388.476562"/>
      <use xlink:href="#DejaVuSans-Bold-67" x="1459.667969"/>
     </g>
    </g>
   </g>
   <g id="line2d_30">
    <path d="M 232.109992 471.721183 
L 344.186384 350.066733 
L 736.453758 81.908302 
" clip-path="url(#p92725508b8)" style="fill: none; stroke: #808080; stroke-width: 1.5; stroke-linecap: square"/>
   </g>
   <g id="patch_6">
    <path d="M 115.36375 568.13125 
L 115.36375 10.8 
" style="fill: #808080; stroke: #000000; stroke-width: 4; stroke-linejoin: miter; stroke-linecap: square"/>
   </g>
   <g id="patch_7">
    <path d="M 853.2 568.13125 
L 853.2 10.8 
" style="fill: #808080; stroke: #000000; stroke-width: 4; stroke-linejoin: miter; stroke-linecap: square"/>
   </g>
   <g id="patch_8">
    <path d="M 115.36375 568.13125 
L 853.2 568.13125 
" style="fill: #808080; stroke: #000000; stroke-width: 4; stroke-linejoin: miter; stroke-linecap: square"/>
   </g>
   <g id="patch_9">
    <path d="M 115.36375 10.8 
L 853.2 10.8 
" style="fill: #808080; stroke: #000000; stroke-width: 4; stroke-linejoin: miter; stroke-linecap: square"/>
   </g>
  </g>
 </g>
 <defs>
  <clipPath id="p92725508b8">
   <rect x="115.36375" y="10.8" width="737.83625" height="557.33125"/>
  </clipPath>
 </defs>
</svg>
